<svg xmlns="http://www.w3.org/2000/svg" xmlns:xlink="http://www.w3.org/1999/xlink" width="860" height="360" viewBox="0 0 860 360"><defs><linearGradient id="a" x1="-727.36" y1="-8409.31" x2="-677.36" y2="-8409.31" gradientTransform="matrix(-0.69, -0.44, -0.04, 0.82, -242.3, 6630.53)" gradientUnits="userSpaceOnUse"><stop offset="0" stop-color="#8fca72"/><stop offset="1" stop-color="#069183"/></linearGradient><linearGradient id="b" x1="737.41" y1="-5817.14" x2="779.93" y2="-5817.14" gradientTransform="matrix(-0.99, -0.1, -0.1, 0.99, 784.51, 5970.14)" xlink:href="#a"/><linearGradient id="c" x1="-6270.65" y1="-5986.9" x2="-6228.14" y2="-5986.9" gradientTransform="matrix(-0.1, 0.99, 0.99, 0.1, 5894.09, 6876.08)" xlink:href="#a"/><linearGradient id="d" x1="2679.6" y1="-4563.96" x2="2679.6" y2="-4521.18" gradientTransform="matrix(-0.82, -0.57, -0.57, 0.82, 199.49, 5317.71)" xlink:href="#a"/></defs><path d="M758.88,271.46c0,2.71-11.18,4.91-25,4.91s-25-2.2-25-4.91,11.17-4.91,25-4.91,25,2.19,25,4.91" fill="#eaeaea" fill-rule="evenodd"/><path d="M678.28,199.77s4.7,5.3,6.28,11.16,5,11.79,7.81,10.75c-4.6,1.38-22.35-1.55-16-17.11" fill="#eaeaea" fill-rule="evenodd"/><path d="M726,186.87S739,192,742.82,205.13s17.85,25.51,23.66,20.86c-24.35,19.49-53.54-6-40.53-39.12" fill="#eaeaea" fill-rule="evenodd"/><path d="M222.08,176.69c-13.68,35.2,22.4,42.23,35.91,29.73-5.14,4.76-17.32-4.67-20.92-15.32s-12.5-17.35-12.5-17.35Z" fill="#eaeaea" fill-rule="evenodd"/><path d="M183,219.44s4.59,1.69,6.53,8.49,6.5,11.5,9.58,9.45c-7.16,4.76-27.29.49-16.11-17.94" fill="#eaeaea" fill-rule="evenodd"/><path d="M639.25,320.86c58.21,3.74,137,4.26,152.67-32.05" fill="none" stroke="#d0d0cf" stroke-linecap="round" stroke-linejoin="round" stroke-width="2.34"/><path d="M603.32,232.67c70.91,3.58,131,11,153.84,19,30.08,10.42,35.74,20.5,35.74,25" fill="none" stroke="#d0d0cf" stroke-linecap="round" stroke-linejoin="round" stroke-width="2.4"/><line x1="688.4" y1="222.22" x2="688.4" y2="236.18" fill="none" stroke="#d0d0cf" stroke-linecap="round" stroke-linejoin="round" stroke-width="2.18"/><path d="M701.59,210.3c.9,6.57-5.9,11.91-13.18,11.91s-13.19-5.33-13.19-11.91,9.08-26.43,14.4-16.72C693.74,201.08,700.19,200.21,701.59,210.3Z" fill="none" stroke="#d0d0cf" stroke-linecap="round" stroke-linejoin="round" stroke-width="2.18"/><line x1="749.47" y1="234.54" x2="749.47" y2="269.95" fill="none" stroke="#d0d0cf" stroke-linecap="round" stroke-linejoin="round" stroke-width="2.18"/><path d="M775.94,204.25C773.29,220.47,764.09,234,749.47,234S723,220.7,723,204.25,735.5,140.69,746.2,165c8.26,18.74,32.17,24.44,29.74,39.27" fill="none" stroke="#d0d0cf" stroke-linecap="round" stroke-linejoin="round" stroke-width="2.18" fill-rule="evenodd"/><path d="M775.94,204.25C773.29,220.47,764.09,234,749.47,234S723,220.7,723,204.25,735.5,140.69,746.2,165C754.46,183.72,778.37,189.42,775.94,204.25Z" fill="none" stroke="#d0d0cf" stroke-linecap="round" stroke-linejoin="round" stroke-width="2.18"/><path d="M791.55,331.93c24.9-16.68,25.6-40.82,19.16-52.85C804.86,268.13,787.53,265,787.53,265" fill="none" stroke="#d0d0cf" stroke-linecap="round" stroke-linejoin="round" stroke-width="2.34"/><path d="M787.53,265s36,2.38,49.79,16.81" fill="none" stroke="#d0d0cf" stroke-linecap="round" stroke-linejoin="round" stroke-width="2.34"/><path d="M227.87,315c0,1.57-7.77,2.85-17.35,2.85s-17.36-1.28-17.36-2.85,7.77-2.84,17.36-2.84,17.35,1.27,17.35,2.84" fill="#ebecec" fill-rule="evenodd"/><path d="M319.37,232.17s-93,21.1-137.93,46c-36.81,20.37-84.53,7.12-56-2.86,38.62-13.5,64-27.36,169.46-41Z" fill="#eaeaea" fill-rule="evenodd"/><path d="M323.27,230.74C228.83,242.13,190,250.91,120.88,277" fill="none" stroke="#d0d0cf" stroke-linecap="round" stroke-linejoin="round" stroke-width="2.44"/><path d="M238.85,300c0,7.92-7,14.34-15.67,14.34s-15.67-6.42-15.67-14.34,6.83-22.64,15.67-14.34c7,8.74,15.67,6.42,15.67,14.34" fill="none" stroke="#d0d0cf" stroke-linecap="round" stroke-linejoin="round" stroke-width="2.18" fill-rule="evenodd"/><path d="M210.81,290.53a19.12,19.12,0,0,1,8.32,5.19c5.13,5.23,5.78,17.23,14.37,15-3.23.83-13.26,6.16-20.57.58s-7.63-17.88-3.17-20.8" fill="#eaeaea" fill-rule="evenodd"/><path d="M205,228.5c.88,6-5.71,10.91-12.76,10.91s-12.77-4.88-12.77-10.91,8.79-24.2,13.95-15.31c4,6.87,10.23,6.07,11.58,15.31" fill="none" stroke="#d0d0cf" stroke-linecap="round" stroke-linejoin="round" stroke-width="2.18" fill-rule="evenodd"/><path d="M205,228.5c.88,6-5.71,10.91-12.76,10.91s-12.77-4.88-12.77-10.91,8.79-24.2,13.95-15.31C197.42,220.06,203.67,219.26,205,228.5Z" fill="none" stroke="#d0d0cf" stroke-linecap="round" stroke-linejoin="round" stroke-width="2.18"/><line x1="243.93" y1="211.9" x2="243.93" y2="241.42" fill="none" stroke="#d0d0cf" stroke-linecap="round" stroke-linejoin="round" stroke-width="2.18"/><line x1="191.96" y1="239.95" x2="191.96" y2="253.54" fill="none" stroke="#d0d0cf" stroke-linecap="round" stroke-linejoin="round" stroke-width="2.18"/><path d="M219.08,189.9c.75,12,8.55,21.58,22.27,21.58s24.85-9.74,24.85-21.75-15.11-75.17-24-47.7c-8.47,26.25-24.13,32.17-23.15,47.87" fill="none" stroke="#d0d0cf" stroke-linecap="round" stroke-linejoin="round" stroke-width="2.18" fill-rule="evenodd"/><path d="M219.08,189.9c.75,12,8.55,21.58,22.27,21.58s24.85-9.74,24.85-21.75-15.11-75.17-24-47.7C233.76,168.28,218.1,174.2,219.08,189.9Z" fill="none" stroke="#d0d0cf" stroke-linecap="round" stroke-linejoin="round" stroke-width="2.18"/><ellipse cx="432.63" cy="319.9" rx="130.53" ry="14.42" fill="#eaeaea"/><path d="M503.08,319.9c-7,0-14-2.3-20.76-4.53-6.34-2.08-12.34-4.05-17.72-4.05s-11.38,2-17.73,4.05c-6.78,2.23-13.8,4.53-20.75,4.53a26.74,26.74,0,0,1-8.28-1.25c-10-3.24-16.18-11.89-22.17-20.25-3.76-5.25-7.31-10.21-11.36-13.16s-10-4.89-16.23-6.87c-9.73-3.11-19.79-6.33-25.88-14.7s-6-18.8-6-29c0-6.58,0-12.79-1.57-17.75-1.51-4.63-5.07-9.47-8.85-14.58-5.86-7.94-12.5-16.94-12.5-27.64s6.64-19.7,12.5-27.64c3.78-5.12,7.34-10,8.85-14.58,1.61-5,1.59-11.18,1.57-17.75,0-10.17-.06-20.68,6-29s16.15-11.59,25.88-14.7c6.22-2,12.1-3.86,16.23-6.87s7.6-7.91,11.36-13.16c6-8.36,12.18-17,22.17-20.25a26.74,26.74,0,0,1,8.28-1.25c6.95,0,14,2.3,20.75,4.53,6.35,2.08,12.35,4,17.73,4s11.38-2,17.73-4c6.78-2.23,13.8-4.53,20.75-4.53a26.79,26.79,0,0,1,8.28,1.25c10,3.24,16.18,11.89,22.17,20.25,3.75,5.25,7.3,10.21,11.36,13.16s10,4.89,16.22,6.87c9.73,3.11,19.8,6.33,25.89,14.7s6,18.8,6,29c0,6.58,0,12.79,1.57,17.75,1.5,4.63,5.07,9.46,8.84,14.58,5.87,7.94,12.51,16.94,12.51,27.64s-6.64,19.7-12.51,27.64c-3.77,5.12-7.34,9.95-8.84,14.58-1.61,5-1.59,11.18-1.57,17.75,0,10.17.06,20.68-6,29s-16.16,11.59-25.89,14.7c-6.22,2-12.09,3.86-16.23,6.87s-7.6,7.91-11.36,13.16c-6,8.36-12.17,17-22.16,20.25A26.79,26.79,0,0,1,503.08,319.9Z" fill="#0a8b44"/><path d="M609.8,174.73c0,14.87-16.7,26.92-21.06,40.34-4.52,13.91,1.75,33.44-6.67,45S553,271.81,541.3,280.31s-17.92,28-31.82,32.55c-13.42,4.35-30-7.64-44.88-7.64s-31.46,12-44.88,7.64c-13.91-4.52-20.25-24.12-31.82-32.55s-32.27-8.54-40.78-20.23-2.15-31.11-6.66-45c-4.36-13.42-21.06-25.47-21.06-40.34s16.7-26.92,21.06-40.34c4.51-13.91-1.76-33.44,6.67-45s29.08-11.73,40.77-20.23,17.91-28,31.82-32.55c13.42-4.35,30,7.64,44.88,7.64s31.46-12,44.88-7.64c13.9,4.52,20.24,24.12,31.82,32.55s32.26,8.54,40.77,20.23,2.15,31.11,6.67,45C593.1,147.81,609.8,159.86,609.8,174.73Z" fill="none" stroke="#fff" stroke-miterlimit="10" stroke-width="1.7"/><path d="M408.51,164.75H398.1v17.63h-8.88v-49.2h19.29c11.32,0,17.35,6.31,17.35,15.75S419.83,164.75,408.51,164.75ZM408.17,141H398.1v15.89h10.07c6,0,8.67-3.19,8.67-7.91S414.13,141,408.17,141Z" fill="#fff"/><path d="M449.66,154c-6.1,0-9.3,4.38-9.3,10.21v18.18h-8.74V146.29H439l.76,5.42c1.66-4.17,6-5.9,10.2-5.9a19.12,19.12,0,0,1,2.71.2v8.33A14.44,14.44,0,0,0,449.66,154Z" fill="#fff"/><path d="M459.31,141.29v-8.95h9.3v8.95Zm.27,41.09V146.29h8.82v36.09Z" fill="#fff"/><path d="M504.21,177.45a15.78,15.78,0,0,1-12.36,5.69,16.44,16.44,0,0,1-12.56-5.69c-2.71-3.4-4-7.91-4-13.18s1.25-9.79,4-13.19a16.47,16.47,0,0,1,12.56-5.69,15.81,15.81,0,0,1,12.36,5.69,14.17,14.17,0,0,1,2.77,7.84h-8.54a6.83,6.83,0,0,0-1-3.33,6.3,6.3,0,0,0-5.55-2.7,7,7,0,0,0-5.27,2.22c-2.08,2.29-2.43,5.76-2.43,9.16s.35,6.8,2.43,9.09a7.07,7.07,0,0,0,5.27,2.29,6.3,6.3,0,0,0,5.55-2.71,6.83,6.83,0,0,0,1-3.33H507A14.14,14.14,0,0,1,504.21,177.45Z" fill="#fff"/><path d="M544.59,167H520.44a9.5,9.5,0,0,0,2.64,7.08,7.6,7.6,0,0,0,5.34,2.22c2.5,0,4-.48,5.28-1.73a6.66,6.66,0,0,0,1.73-3.06h8.33a14.43,14.43,0,0,1-3,6.67c-3.06,3.6-7.57,5.06-12.15,5.06a15.73,15.73,0,0,1-11.38-4.44c-3.61-3.47-5.55-8.54-5.55-14.43s1.73-10.9,5.2-14.44a15.65,15.65,0,0,1,11.52-4.58c5.35,0,10.2,2.15,13.19,6.66,2.64,4,3.26,8,3.12,12.56C544.66,164.61,544.59,166.28,544.59,167Zm-10.82-12.63a7.26,7.26,0,0,0-5.49-2.08,7.39,7.39,0,0,0-6,2.78,8.83,8.83,0,0,0-1.88,5.62H536A9.45,9.45,0,0,0,533.77,154.41Z" fill="#fff"/><path d="M410.94,244.36V209.25l-12.77,34.42h-6.59l-12.7-34.84v35.53H370.2v-49.2h12.08l12.91,35.05,13-35.05h11.45v49.2Z" fill="#fff"/><path d="M457.37,244.92c-3.75,0-5.83-2.36-6.11-5.07-1.67,2.92-5.83,5.42-11,5.42-8.6,0-13-5.42-13-11.32,0-6.87,5.34-10.82,12.21-11.31l10.62-.76v-2.22c0-3.4-1.18-5.69-6.11-5.69-4,0-6.38,1.8-6.59,5.13H429c.49-8.12,6.94-11.73,15-11.73,6.18,0,11.45,1.95,13.53,7.36a19.81,19.81,0,0,1,1,7.29v13.39c0,1.67.56,2.29,2,2.29a5.27,5.27,0,0,0,1.11-.14V244A8.82,8.82,0,0,1,457.37,244.92Zm-7.29-16.59-9.16.7c-2.64.2-5.21,1.8-5.21,4.71s2.43,4.52,5.14,4.52c5.41,0,9.23-2.92,9.23-8.26Z" fill="#fff"/><path d="M481.3,244.85c-7.28,0-10.89-4.16-10.89-11.11V215.42h-6.59v-7.14h6.59v-9.17l8.67-2.15v11.32h9.09v7.14h-9.09V233c0,2.78,1.25,4,4,4a43,43,0,0,0,5.62-.35v7.29A29.69,29.69,0,0,1,481.3,244.85Z" fill="#fff"/><path d="M521.21,239.44a15.79,15.79,0,0,1-12.36,5.69,16.47,16.47,0,0,1-12.56-5.69c-2.7-3.4-4-7.92-4-13.19s1.25-9.79,4-13.19a16.47,16.47,0,0,1,12.56-5.69,15.79,15.79,0,0,1,12.36,5.69,14.2,14.2,0,0,1,2.77,7.85h-8.53a7.12,7.12,0,0,0-1-3.34,6.35,6.35,0,0,0-5.56-2.7,7,7,0,0,0-5.27,2.22c-2.08,2.29-2.43,5.76-2.43,9.16s.35,6.8,2.43,9.09a7.07,7.07,0,0,0,5.27,2.29,6.33,6.33,0,0,0,5.56-2.71,7,7,0,0,0,1-3.33H524A14.17,14.17,0,0,1,521.21,239.44Z" fill="#fff"/><path d="M552.85,244.36V222.09c0-4.17-1.39-6.74-6-6.74-5.2,0-7.42,5.56-7.42,10v19h-8.68v-50.1h8.68v17.83c2.08-3.05,6.1-4.72,9.85-4.72,7.71,0,12.22,5.49,12.22,12.91v24.08Z" fill="#fff"/><path d="M419.27,106.21h-4.91L424.25,85H411.7V80.93h17.42v3.64Z" fill="#fff"/><path d="M465.39,103.44a9.84,9.84,0,0,1-7.23,2.77h-10V80.42h10a9.87,9.87,0,0,1,7.23,2.76c2.66,2.73,3,6.55,3,10.12S468.05,100.72,465.39,103.44Zm-3.6-17.35a5.09,5.09,0,0,0-3.63-1.45h-5.35V102h5.35a5.06,5.06,0,0,0,3.63-1.46c1.82-1.82,1.86-4.87,1.86-7.23S463.61,87.91,461.79,86.09Z" fill="#fff"/><path d="M490.62,106.21l-1.68-4.95H478.69L477,106.21h-4.73l9-25.79h5.13l9.06,25.79Zm-6.8-20L480.14,97h7.35Z" fill="#fff"/><path d="M509.24,96.31v9.9h-4.73v-9.9l-8.95-15.89h5.1L507,91.55l6.37-11.13h4.87Z" fill="#fff"/><path d="M731,64c1.28-.64,3.83-.64,5.75-1.28.3-.1.38-6.73.65-6.85,1.94-4.25,9.44-4,9.36,1.51,0,3.07.31,8.11,4.89,6.44,3.21-1.17,6.06,1.31,6.48,4.37.32,2.24,4.66,2.35,6.35,2.59,5.41.76,5.48,10.47-.91,10.47-6.07,0-11.9-.46-18-.42-4.72,0-12.14,1.14-15.89-2.14C724.65,74.19,726,67.31,731,64Z" fill="#eaeaea"/><path d="M785.35,64.06a11.65,11.65,0,0,0-9.76-8,11.64,11.64,0,0,0-20.44-4.89,11.64,11.64,0,0,0-18.07,12,8.15,8.15,0,0,0-1.22-.09,8.9,8.9,0,0,0,0,17.79h45.5a8.89,8.89,0,0,0,4-16.84Z" fill="none" stroke="#d0d0cf" stroke-linecap="round" stroke-linejoin="round" stroke-width="2.18"/><path d="M217.4,74.39c3.13-4,6.54-8,10.94-10.18s10-2.1,13.58,1.49" fill="none" stroke="#d0d0cf" stroke-linecap="round" stroke-linejoin="round" stroke-width="2.18"/><path d="M241.85,65.53c.38-4.06,3.72-7.19,7.31-8.27s7.41-.53,11.09.09" fill="none" stroke="#d0d0cf" stroke-linecap="round" stroke-linejoin="round" stroke-width="2.18"/><path d="M213.27,53.71c-4.69-2-9.6-3.82-14.48-3.58s-9.77,3-11.11,7.88" fill="none" stroke="#d0d0cf" stroke-linecap="round" stroke-linejoin="round" stroke-width="2.18"/><path d="M187.67,57.83c-2.31-3.37-6.74-4.49-10.39-3.69s-6.71,3.14-9.61,5.46" fill="none" stroke="#d0d0cf" stroke-linecap="round" stroke-linejoin="round" stroke-width="2.18"/><path d="M238.85,300c0,7.92-7,14.34-15.67,14.34s-15.67-6.42-15.67-14.34,6.83-22.64,15.67-14.34C230.14,294.37,238.85,292.05,238.85,300Z" fill="none" stroke="#d0d0cf" stroke-linecap="round" stroke-linejoin="round" stroke-width="2.18"/><line x1="632.75" y1="70.86" x2="598.61" y2="88.23" fill="none" stroke-linecap="round" stroke-linejoin="round" stroke-width="3.27" stroke-dasharray="3.27 8.73" stroke="url(#a)"/><line x1="642.36" y1="107.97" x2="603.32" y2="103.97" fill="none" stroke-linecap="round" stroke-linejoin="round" stroke-width="3.27" stroke-dasharray="3.27 8.73" stroke="url(#b)"/><line x1="577.51" y1="29.37" x2="573.51" y2="68.41" fill="none" stroke-linecap="round" stroke-linejoin="round" stroke-width="3.27" stroke-dasharray="3.27 8.73" stroke="url(#c)"/><line x1="611.12" y1="42.71" x2="588.53" y2="75.12" fill="none" stroke-linecap="round" stroke-linejoin="round" stroke-width="3.27" stroke-dasharray="3.27 8.73" stroke="url(#d)"/></svg>